name analog
datacolumns 19
datarows 37
range 0.0 0.018000000000000002
endheader
time	ground_force_vx	ground_force_vy	ground_force_vz	ground_force_px	ground_force_py	ground_force_pz	l_ground_force_vx	l_ground_force_vy	l_ground_force_vz	l_ground_force_px	l_ground_force_py	l_ground_force_pz	ground_torque_x	ground_torque_y	ground_torque_z	l_ground_torque_x	l_ground_torque_y	l_ground_torque_z
0.0	-0.0	-0.0	-0.0	-5.326239585876465	16.756515502929688	-328.92974853515625	4.941917896270752	-15.312663078308104	-446.9575805664063	-0.0	-0.0	-0.0	-0.0	-0.0	-0.0	155523.734375	-17123.046875	-809.9598999023438
0.0005	-0.0	-0.0	-0.0	-5.415377140045166	17.195348739624023	-327.9335021972656	4.868257999420166	-15.3162841796875	-445.0830383300781	-0.0	-0.0	-0.0	-0.0	-0.0	-0.0	155476.125	-17117.677734375	-787.61962890625
0.001	-0.0	-0.0	-0.0	-5.540726661682129	16.835979461669922	-326.8346862792969	4.660350799560547	-15.051223754882812	-444.67474365234375	-0.0	-0.0	-0.0	-0.0	-0.0	-0.0	155523.9375	-17187.326171875	-653.1174926757812
0.0015	-0.0	-0.0	-0.0	-5.039501667022705	16.692163467407227	-326.36865234375	4.764303684234619	-14.87954330444336	-445.4148254394531	-0.0	-0.0	-0.0	-0.0	-0.0	-0.0	155184.78125	-16866.369140625	-771.656005859375
0.002	-0.0	-0.0	-0.0	-5.325985908508301	16.916240692138672	-328.1408996582031	4.524250030517578	-14.952388763427734	-444.5729064941406	-0.0	-0.0	-0.0	-0.0	-0.0	-0.0	155075.53125	-17030.40234375	-712.5172119140625
0.0025	-0.0	-0.0	-0.0	-5.361762523651123	16.756515502929688	-327.7871398925781	4.988107681274414	-15.034900665283203	-444.4068908691406	-0.0	-0.0	-0.0	-0.0	-0.0	-0.0	154908.953125	-17018.109375	-799.2332763671875
0.003	-0.0	-0.0	-0.0	-5.20097541809082	16.765445709228516	-327.43310546875	5.34251594543457	-15.201220512390137	-444.120849609375	-0.0	-0.0	-0.0	-0.0	-0.0	-0.0	154712.34375	-16968.0546875	-649.348388671875
0.0035	-0.0	-0.0	-0.0	-5.254687309265137	16.836294174194336	-329.51690673828125	4.967803955078125	-15.03411102294922	-442.052734375	-0.0	-0.0	-0.0	-0.0	-0.0	-0.0	154596.40625	-17000.12109375	-706.683837890625
0.004	-0.0	-0.0	-0.0	-5.236546516418457	16.515974044799805	-328.9892883300781	5.224323272705078	-15.122149467468262	-442.8658752441406	-0.0	-0.0	-0.0	-0.0	-0.0	-0.0	154330.5625	-16694.958984375	-694.4293212890625
0.0045000000000000005	-0.0	-0.0	-0.0	-4.99578857421875	16.810359954833984	-328.10418701171875	4.675233364105225	-14.87197971343994	-443.3185119628906	-0.0	-0.0	-0.0	-0.0	-0.0	-0.0	154265.078125	-16742.689453125	-653.0613403320312
0.005	-0.0	-0.0	-0.0	-5.290414333343506	16.89136505126953	-329.1219787597656	4.967803955078125	-14.909207344055176	-442.7556457519531	-0.0	-0.0	-0.0	-0.0	-0.0	-0.0	154206.5	-16738.9140625	-700.239990234375
0.0055	-0.0	-0.0	-0.0	-5.1311235427856445	16.87268829345703	-328.3185119628906	5.047479152679443	-15.103008270263672	-442.4106750488281	-0.0	-0.0	-0.0	-0.0	-0.0	-0.0	154052.21875	-16641.138671875	-753.749755859375
0.006	-0.0	-0.0	-0.0	-4.960832118988037	16.899850845336914	-328.0731811523437	4.701671600341797	-15.102959632873535	-440.35009765625	-0.0	-0.0	-0.0	-0.0	-0.0	-0.0	153621.515625	-16719.158203125	-881.5126342773438
0.006500000000000001	-0.0	-0.0	-0.0	-5.333139419555664	17.236995697021484	-328.70294189453125	4.506825923919678	-14.590953826904297	-441.1177368164063	-0.0	-0.0	-0.0	-0.0	-0.0	-0.0	153640.015625	-16665.724609375	-834.0072021484375
0.007	-0.0	-0.0	-0.0	-5.186526298522949	16.974306106567383	-329.3011474609375	4.8426055908203125	-15.093301773071287	-441.5715637207031	-0.0	-0.0	-0.0	-0.0	-0.0	-0.0	153674.484375	-16391.201171875	-845.6051025390625
0.0075	-0.0	-0.0	-0.0	-5.057702541351318	17.5041446685791	-330.1942749023437	4.524250030517578	-15.111322402954102	-440.3856201171875	-0.0	-0.0	-0.0	-0.0	-0.0	-0.0	153470.3125	-16682.43359375	-842.9633178710938
0.008	-0.0	-0.0	-0.0	-5.359770774841309	17.140369415283203	-329.6252136230469	4.709842681884766	-14.679993629455566	-438.6401062011719	-0.0	-0.0	-0.0	-0.0	-0.0	-0.0	153141.234375	-16475.13671875	-741.9801025390625
0.0085	-0.0	-0.0	-0.0	-4.99578857421875	17.160930633544922	-329.8700561523437	4.790382385253906	-14.450037002563477	-438.9582214355469	-0.0	-0.0	-0.0	-0.0	-0.0	-0.0	153398.671875	-16516.431640625	-703.1989135742188
0.009000000000000001	-0.0	-0.0	-0.0	-4.906578063964844	17.072040557861328	-330.603271484375	4.825160026550293	-14.54623031616211	-439.2942199707031	-0.0	-0.0	-0.0	-0.0	-0.0	-0.0	152941.953125	-16509.236328125	-785.76953125
0.0095	-0.0	-0.0	-0.0	-5.0443291664123535	17.428924560546875	-330.24920654296875	4.829272270202637	-14.845603942871094	-439.3391723632813	-0.0	-0.0	-0.0	-0.0	-0.0	-0.0	152662.84375	-16572.19921875	-671.0281982421875
0.01	-0.0	-0.0	-0.0	-5.2570414543151855	17.681777954101562	-331.06414794921875	5.349746227264404	-14.565696716308594	-438.020263671875	-0.0	-0.0	-0.0	-0.0	-0.0	-0.0	152494.265625	-16516.181640625	-661.5654907226562
0.0105	-0.0	-0.0	-0.0	-5.029682159423828	17.269893646240234	-330.4669189453125	5.145225524902344	-14.63437271118164	-439.36822509765625	-0.0	-0.0	-0.0	-0.0	-0.0	-0.0	152757.6875	-16549.810546875	-812.495849609375
0.011	-0.0	-0.0	-0.0	-4.934309482574463	17.92723274230957	-330.0896301269531	4.462758541107178	-14.742698669433594	-438.7764587402344	-0.0	-0.0	-0.0	-0.0	-0.0	-0.0	152636.640625	-16784.73828125	-787.6807250976562
0.0115	-0.0	-0.0	-0.0	-4.851019382476807	17.592309951782227	-332.6087951660156	4.974714279174805	-14.919485092163086	-437.5670776367188	-0.0	-0.0	-0.0	-0.0	-0.0	-0.0	152742.140625	-16653.708984375	-757.7772216796875
0.012	-0.0	-0.0	-0.0	-4.8951945304870605	17.436058044433594	-331.28277587890625	4.851766586303711	-14.301411628723145	-437.8096618652344	-0.0	-0.0	-0.0	-0.0	-0.0	-0.0	152743.578125	-16602.392578125	-723.5074462890625
0.0125	-0.0	-0.0	-0.0	-4.93449068069458	17.369491577148438	-332.3639831542969	4.7564697265625	-14.736751556396484	-437.6770324707031	-0.0	-0.0	-0.0	-0.0	-0.0	-0.0	152863.65625	-16786.626953125	-691.7952270507812
0.013000000000000001	-0.0	-0.0	-0.0	-4.850656986236572	17.831403732299805	-331.28277587890625	5.267753601074219	-14.682384490966797	-437.62005615234375	-0.0	-0.0	-0.0	-0.0	-0.0	-0.0	152495.703125	-16682.1953125	-552.29150390625
0.0135	-0.0	-0.0	-0.0	-5.018711090087891	18.06546401977539	-331.7671813964844	5.438877105712891	-14.621749877929688	-437.0295104980469	-0.0	-0.0	-0.0	-0.0	-0.0	-0.0	152542.203125	-16646.720703125	-604.38623046875
0.014	-0.0	-0.0	-0.0	-4.812438011169434	17.6197509765625	-332.4730529785156	5.799753189086914	-14.213845252990724	-437.0292663574219	-0.0	-0.0	-0.0	-0.0	-0.0	-0.0	152458.03125	-17060.048828125	-533.438232421875
0.0145	-0.0	-0.0	-0.0	-4.929934501647949	17.61970329284668	-333.40185546875	5.977078914642334	-14.098159790039062	-437.5099182128906	-0.0	-0.0	-0.0	-0.0	-0.0	-0.0	152199.640625	-16919.451171875	-455.4781188964844
0.015	-0.0	-0.0	-0.0	-5.000355243682861	17.535062789916992	-332.8072204589844	5.5554680824279785	-14.490344047546388	-437.7271118164063	-0.0	-0.0	-0.0	-0.0	-0.0	-0.0	152118.59375	-16582.3984375	-363.0838623046875
0.0155	-0.0	-0.0	-0.0	-5.065494537353516	17.586938858032227	-332.324951171875	5.838015556335449	-13.83345890045166	-437.3990783691406	-0.0	-0.0	-0.0	-0.0	-0.0	-0.0	152185.21875	-16675.83984375	-472.1700439453125
0.016	-0.0	-0.0	-0.0	-4.991547107696533	17.49361801147461	-332.4376525878906	6.14885139465332	-14.214526176452637	-436.7886962890625	-0.0	-0.0	-0.0	-0.0	-0.0	-0.0	151921.21875	-16666.453125	-368.0413513183594
0.0165	-0.0	-0.0	-0.0	-4.72011137008667	17.975971221923828	-332.8238830566406	5.887863159179688	-14.043148040771484	-435.2623596191406	-0.0	-0.0	-0.0	-0.0	-0.0	-0.0	151852.265625	-16731.328125	-446.035888671875
0.017	-0.0	-0.0	-0.0	-4.635067462921143	17.951379776000977	-333.96490478515625	5.472141265869141	-13.894309997558594	-435.0816955566406	-0.0	-0.0	-0.0	-0.0	-0.0	-0.0	151756.984375	-16548.416015625	-522.6034545898438
0.0175	-0.0	-0.0	-0.0	-4.906578063964844	17.587181091308594	-332.6810302734375	5.528068542480469	-14.252358436584473	-434.1242065429688	-0.0	-0.0	-0.0	-0.0	-0.0	-0.0	151511.765625	-16603.978515625	-443.0739135742188
0.018000000000000002	-0.0	-0.0	-0.0	-5.145632266998291	17.950714111328125	-334.33447265625	5.0193939208984375	-14.280176162719728	-433.51806640625	-0.0	-0.0	-0.0	-0.0	-0.0	-0.0	151290.34375	-16577.255859375	-551.2611694335938
